<mxfile host="Electron" agent="Mozilla/5.0 (Windows NT 10.0; Win64; x64) AppleWebKit/537.36 (KHTML, like Gecko) draw.io/26.2.2 Chrome/134.0.6998.178 Electron/35.1.2 Safari/537.36" version="26.2.2">
  <diagram name="Page-1" id="bAAAVRep1cDp4-ac2no1">
    <mxGraphModel dx="1072" dy="630" grid="1" gridSize="10" guides="1" tooltips="1" connect="1" arrows="1" fold="1" page="1" pageScale="1" pageWidth="850" pageHeight="1100" math="0" shadow="0">
      <root>
        <mxCell id="0" />
        <mxCell id="1" parent="0" />
        <mxCell id="a46S6m0b1WWG6zB1xLy0-1" value="" style="rounded=0;whiteSpace=wrap;html=1;" parent="1" vertex="1">
          <mxGeometry x="80" y="40" width="690" height="590" as="geometry" />
        </mxCell>
        <mxCell id="a46S6m0b1WWG6zB1xLy0-2" value="sensor_driver.vhd" style="text;html=1;align=center;verticalAlign=middle;whiteSpace=wrap;rounded=0;aspect=fixed;" parent="1" vertex="1">
          <mxGeometry x="200" y="40" width="60" height="30" as="geometry" />
        </mxCell>
        <mxCell id="a46S6m0b1WWG6zB1xLy0-4" value="clk" style="text;html=1;align=left;verticalAlign=middle;whiteSpace=wrap;rounded=0;" parent="1" vertex="1">
          <mxGeometry x="80" y="72" width="60" height="30" as="geometry" />
        </mxCell>
        <mxCell id="a46S6m0b1WWG6zB1xLy0-5" value="rst" style="text;html=1;align=left;verticalAlign=middle;whiteSpace=wrap;rounded=0;" parent="1" vertex="1">
          <mxGeometry x="80" y="88" width="60" height="30" as="geometry" />
        </mxCell>
        <mxCell id="a46S6m0b1WWG6zB1xLy0-7" value="trig" style="text;html=1;align=right;verticalAlign=middle;whiteSpace=wrap;rounded=0;" parent="1" vertex="1">
          <mxGeometry x="710" y="70" width="60" height="30" as="geometry" />
        </mxCell>
        <mxCell id="a46S6m0b1WWG6zB1xLy0-8" value="sens_out (11:0)" style="text;html=1;align=right;verticalAlign=middle;whiteSpace=wrap;rounded=0;" parent="1" vertex="1">
          <mxGeometry x="670" y="90" width="100" height="30" as="geometry" />
        </mxCell>
        <mxCell id="a46S6m0b1WWG6zB1xLy0-14" value="" style="group" parent="1" vertex="1" connectable="0">
          <mxGeometry x="150" y="180" width="120" height="180" as="geometry" />
        </mxCell>
        <mxCell id="a46S6m0b1WWG6zB1xLy0-9" value="" style="rounded=0;whiteSpace=wrap;html=1;" parent="a46S6m0b1WWG6zB1xLy0-14" vertex="1">
          <mxGeometry width="120" height="180" as="geometry" />
        </mxCell>
        <mxCell id="a46S6m0b1WWG6zB1xLy0-10" value="clock_enable.vhd" style="text;html=1;align=center;verticalAlign=middle;whiteSpace=wrap;rounded=0;" parent="a46S6m0b1WWG6zB1xLy0-14" vertex="1">
          <mxGeometry x="30" y="-9.09" width="60" height="49.090909090909086" as="geometry" />
        </mxCell>
        <mxCell id="a46S6m0b1WWG6zB1xLy0-11" value="clk" style="text;html=1;align=center;verticalAlign=middle;whiteSpace=wrap;rounded=0;" parent="a46S6m0b1WWG6zB1xLy0-14" vertex="1">
          <mxGeometry y="69.23706293706293" width="60" height="49.090909090909086" as="geometry" />
        </mxCell>
        <mxCell id="a46S6m0b1WWG6zB1xLy0-12" value="rst" style="text;html=1;align=center;verticalAlign=middle;whiteSpace=wrap;rounded=0;" parent="a46S6m0b1WWG6zB1xLy0-14" vertex="1">
          <mxGeometry y="118.32797202797202" width="60" height="49.090909090909086" as="geometry" />
        </mxCell>
        <mxCell id="a46S6m0b1WWG6zB1xLy0-13" value="pulse" style="text;html=1;align=center;verticalAlign=middle;whiteSpace=wrap;rounded=0;" parent="a46S6m0b1WWG6zB1xLy0-14" vertex="1">
          <mxGeometry x="60" y="118.32797202797202" width="60" height="49.090909090909086" as="geometry" />
        </mxCell>
        <mxCell id="mIVUcqe8eggLqy-oAHFI-2" value="N_PERIODS = ???" style="text;html=1;align=center;verticalAlign=middle;whiteSpace=wrap;rounded=0;" parent="a46S6m0b1WWG6zB1xLy0-14" vertex="1">
          <mxGeometry x="10" y="30" width="90" height="49.09" as="geometry" />
        </mxCell>
        <mxCell id="a46S6m0b1WWG6zB1xLy0-16" value="echo" style="text;html=1;align=left;verticalAlign=middle;whiteSpace=wrap;rounded=0;" parent="1" vertex="1">
          <mxGeometry x="80" y="100" width="60" height="30" as="geometry" />
        </mxCell>
        <mxCell id="mIVUcqe8eggLqy-oAHFI-23" value="" style="group" parent="1" vertex="1" connectable="0">
          <mxGeometry x="350" y="180" width="160" height="250" as="geometry" />
        </mxCell>
        <mxCell id="mIVUcqe8eggLqy-oAHFI-3" value="" style="rounded=0;whiteSpace=wrap;html=1;" parent="mIVUcqe8eggLqy-oAHFI-23" vertex="1">
          <mxGeometry width="160" height="250" as="geometry" />
        </mxCell>
        <mxCell id="mIVUcqe8eggLqy-oAHFI-4" value="trig_generator.vhd" style="text;html=1;align=center;verticalAlign=middle;whiteSpace=wrap;rounded=0;" parent="mIVUcqe8eggLqy-oAHFI-23" vertex="1">
          <mxGeometry x="30" width="60" height="30" as="geometry" />
        </mxCell>
        <mxCell id="mIVUcqe8eggLqy-oAHFI-19" value="rst" style="text;html=1;align=center;verticalAlign=middle;whiteSpace=wrap;rounded=0;" parent="mIVUcqe8eggLqy-oAHFI-23" vertex="1">
          <mxGeometry y="120" width="60" height="30" as="geometry" />
        </mxCell>
        <mxCell id="mIVUcqe8eggLqy-oAHFI-20" value="clk" style="text;html=1;align=center;verticalAlign=middle;whiteSpace=wrap;rounded=0;" parent="mIVUcqe8eggLqy-oAHFI-23" vertex="1">
          <mxGeometry y="90" width="60" height="30" as="geometry" />
        </mxCell>
        <mxCell id="mIVUcqe8eggLqy-oAHFI-21" value="bgn" style="text;html=1;align=center;verticalAlign=middle;whiteSpace=wrap;rounded=0;" parent="mIVUcqe8eggLqy-oAHFI-23" vertex="1">
          <mxGeometry y="60" width="60" height="30" as="geometry" />
        </mxCell>
        <mxCell id="mIVUcqe8eggLqy-oAHFI-22" value="trig_gen" style="text;html=1;align=center;verticalAlign=middle;whiteSpace=wrap;rounded=0;" parent="mIVUcqe8eggLqy-oAHFI-23" vertex="1">
          <mxGeometry x="90" y="60" width="60" height="30" as="geometry" />
        </mxCell>
      </root>
    </mxGraphModel>
  </diagram>
</mxfile>
